#!OML:ASF F:\VICON\USERDATA\INSTALL\rory3\rory3.ASF
:FULLY-SPECIFIED
:DEGREES
396
root 1.07433 17.6811 42.5725 -2.50613 -6.07774 -2.17726
lowerback 8.44687 1.67338 3.52801
upperback 0.529556 2.58405 0.544923
thorax -4.05507 1.2207 -1.71795
lowerneck -16.4892 -3.16805 -3.01912
upperneck 20.5113 -3.85764 1.08495
head 9.26069 -1.91895 0.380818
rclavicle -2.6339e-015 6.4605e-015
rhumerus -22.1654 -15.3579 -82.0844
rradius 29.8653
rwrist 0.241562
rhand -17.2572 22.249
rfingers 7.12502
rthumb 8.98716 -7.53961
lclavicle -2.6339e-015 6.4605e-015
lhumerus -37.5086 6.82932 79.9514
lradius 17.5056
lwrist -2.37659
lhand -26.5314 21.3117
lfingers 7.12502
lthumb 0.0325433 51.2914
rfemur 9.0976 4.48638 27.7003
rtibia 40.4452
rfoot -7.97778 1.82116
rtoes -7.6567
lfemur -22.5151 -3.19525 -19.3486
ltibia 25.208
lfoot -0.623951 -4.3176
ltoes 3.63482
397
root 1.08524 17.7141 42.7845 -2.88754 -6.05394 -2.18511
lowerback 8.81558 1.67782 3.53075
upperback 0.456826 2.61058 0.594989
thorax -4.33828 1.22737 -1.6862
lowerneck -16.3125 -3.17643 -2.97476
upperneck 20.6651 -3.85637 0.94371
head 9.2777 -1.93191 0.326934
rclavicle -1.20886e-014 -4.77083e-015
rhumerus -22.8368 -15.9247 -81.746
rradius 29.5162
rwrist 0.620465
rhand -17.2491 21.9754
rfingers 7.12502
rthumb 8.99497 -7.81284
lclavicle -1.20886e-014 -4.77083e-015
lhumerus -37.7335 6.4481 80.1454
lradius 17.6989
lwrist -2.19858
lhand -26.9952 20.4675
lfingers 7.12502
lthumb -0.415446 50.4469
rfemur 8.5043 4.25115 27.3952
rtibia 42.6402
rfoot -4.45377 2.33917
rtoes -8.26385
lfemur -22.2188 -3.18282 -19.4461
ltibia 26.0014
lfoot -0.704116 -4.40991
ltoes 8.85645
398
root 1.10183 17.6963 42.9809 -3.11584 -6.03559 -1.99902
lowerback 8.90945 1.627 3.37892
upperback 0.440801 2.53177 0.583382
thorax -4.4177 1.1895 -1.60772
lowerneck -15.8471 -3.03039 -2.92733
upperneck 20.4767 -3.64988 0.82132
head 9.11903 -1.84818 0.311962
rclavicle -1.57195e-014 2.38542e-014
rhumerus -23.4037 -16.5107 -81.5255
rradius 29.4136
rwrist 1.23654
rhand -16.7172 21.6459
rfingers 7.12502
rthumb 9.50818 -8.11958
lclavicle -1.57195e-014 2.38542e-014
lhumerus -37.786 6.49587 80.137
lradius 17.8495
lwrist -2.52701
lhand -27.1135 20.8998
lfingers 7.12502
lthumb -0.52973 50.8788
rfemur 7.4988 4.09031 26.8681
rtibia 45.0002
rfoot -0.724453 2.95386
rtoes -8.53016
lfemur -21.2603 -2.7337 -20.001
ltibia 26.7381
lfoot -1.90123 -5.1684
ltoes 5.10362
399
root 1.1242 17.7102 43.1703 -3.27992 -6.10796 -2.02472
lowerback 9.03327 1.64799 3.60164
upperback 0.424707 2.5889 0.601717
thorax -4.49222 1.21158 -1.72521
lowerneck -16.2038 -3.27941 -3.17311
upperneck 21.0569 -3.9294 0.827411
head 9.3982 -1.99587 0.30909
rclavicle -2.06488e-014 -1.16289e-014
rhumerus -23.8472 -17.1194 -81.1836
rradius 29.0738
rwrist 1.70755
rhand -16.4889 21.3266
rfingers 7.12502
rthumb 9.72851 -8.42873
lclavicle -2.06488e-014 -1.16289e-014
lhumerus -37.5441 6.88493 79.9403
lradius 18.0297
lwrist -2.78654
lhand -25.4879 22.5564
lfingers 7.12502
lthumb 1.0403 52.5336
rfemur 6.30536 4.0843 26.552
rtibia 47.3658
rfoot 2.5952 3.78567
rtoes -8.55373
lfemur -20.38 -2.42269 -20.2724
ltibia 27.1298
lfoot -3.73663 -5.57791
ltoes 0.919651
400
root 1.14408 17.729 43.3526 -3.42676 -6.20463 -1.74961
lowerback 9.2777 1.70281 3.45888
upperback 0.383101 2.65668 0.557067
thorax -4.67328 1.24327 -1.71037
lowerneck -16.5473 -3.40221 -3.40958
upperneck 21.4524 -4.05077 0.913042
head 9.6111 -2.05999 0.353121
rclavicle 1.20824e-015 2.28602e-014
rhumerus -24.213 -17.3044 -80.907
rradius 28.7185
rwrist 1.7394
rhand -16.3987 21.3131
rfingers 7.12502
rthumb 9.81551 -8.43812
lclavicle 1.20824e-015 2.28602e-014
lhumerus -37.151 6.8652 79.9851
lradius 19.045
lwrist -0.298976
lhand -21.2653 25.7441
lfingers 7.12502
lthumb 5.11816 55.6623
rfemur 4.89555 4.09353 25.92
rtibia 49.8469
rfoot 4.98483 4.88494
rtoes -10.8946
lfemur -19.8351 -2.25714 -20.8012
ltibia 27.7529
lfoot -3.52608 -4.98663
ltoes 1.2342
401
root 1.17101 17.7483 43.5285 -3.3881 -6.09285 -0.805239
lowerback 9.09947 1.66725 2.71995
upperback 0.473846 2.50849 0.243042
thorax -4.50306 1.18695 -1.59551
lowerneck -17.0983 -3.34364 -3.3201
upperneck 21.6989 -3.98571 0.951716
head 9.7979 -2.01461 0.349854
rclavicle -6.46982e-015 9.44227e-015
rhumerus -24.018 -18.0005 -80.9024
rradius 28.1331
rwrist 2.30006
rhand -16.289 21.2728
rfingers 7.12502
rthumb 9.9213 -8.47342
lclavicle -6.46982e-015 9.44227e-015
lhumerus -36.8696 6.21638 80.3673
lradius 17.8873
lwrist -3.65325
lhand -28.3177 14.2601
lfingers 7.12502
lthumb -1.69275 44.2332
rfemur 3.20563 3.91676 24.4487
rtibia 52.3531
rfoot 6.253 5.97321
rtoes -9.98485
lfemur -19.3287 -2.55191 -22.0768
ltibia 27.8911
lfoot -3.28674 -4.43572
ltoes 4.34586
402
root 1.14704 17.7602 43.6999 -3.85689 -7.09741 -2.17811
lowerback 9.79457 1.82707 3.60624
upperback 0.595544 2.86249 0.737858
thorax -4.73189 1.34398 -1.6469
lowerneck -16.7934 -3.14623 -3.18218
upperneck 21.355 -3.79481 1.11575
head 9.6151 -1.89779 0.416793
rclavicle 8.55395e-015 -1.19271e-014
rhumerus -24.0222 -18.7475 -80.7934
rradius 27.3317
rwrist 3.03947
rhand -15.9507 20.395
rfingers 7.12502
rthumb 10.2477 -9.33537
lclavicle 8.55395e-015 -1.19271e-014
lhumerus -36.8106 6.13556 80.2818
lradius 18.6699
lwrist -2.57303
lhand -24.3094 19.9171
lfingers 7.12502
lthumb 2.17856 49.8857
rfemur 2.11429 5.10736 26.3847
rtibia 54.8076
rfoot 6.66788 5.25818
rtoes -7.35187
lfemur -18.1986 -1.91313 -20.4704
ltibia 28.0343
lfoot -2.98754 -4.06832
ltoes 7.14885
403
root 1.1749 17.773 43.8904 -3.7132 -6.83235 -0.896518
lowerback 9.38303 1.77257 2.56669
upperback 0.380746 2.64877 0.353909
thorax -4.76508 1.25508 -1.42515
lowerneck -16.6235 -3.09019 -2.76968
upperneck 21.7248 -3.68508 0.479471
head 9.68945 -1.88781 0.142672
rclavicle 2.72863e-014 3.57812e-015
rhumerus -24.3877 -19.3604 -80.5025
rradius 26.5677
rwrist 3.80084
rhand -15.8633 19.9557
rfingers 7.12502
rthumb 10.332 -9.77054
lclavicle 2.72863e-014 3.57812e-015
lhumerus -37.011 5.84912 80.3198
lradius 19.3124
lwrist -1.78938
lhand -22.2719 22.3363
lfingers 7.12502
lthumb 4.14621 52.2757
rfemur 0.4036 4.69395 24.5084
rtibia 57.2782
rfoot 5.69202 5.20983
rtoes -5.36324
lfemur -17.7168 -2.25275 -22.2059
ltibia 28.0049
lfoot -3.62001 -3.6565
ltoes 3.4453
404
root 1.18962 17.7734 44.0538 -3.76834 -6.71181 -0.39655
lowerback 9.49442 1.68467 2.12653
upperback 0.374668 2.48126 0.222469
thorax -4.85322 1.17932 -1.29765
lowerneck -16.6699 -2.99639 -2.66771
upperneck 21.6587 -3.57061 0.441515
head 9.66973 -1.83049 0.127687
rclavicle -3.79834e-014 -1.03368e-014
rhumerus -24.8381 -19.4884 -80.5063
rradius 26.8907
rwrist 4.39616
rhand -15.9632 20.536
rfingers 7.12502
rthumb 10.2356 -9.19498
lclavicle -3.79834e-014 -1.03368e-014
lhumerus -36.8176 4.99221 80.8306
lradius 19.2017
lwrist -1.79111
lhand -24.5094 22.1942
lfingers 7.12502
lthumb 1.98535 52.1647
rfemur -1.11413 4.44401 23.7544
rtibia 59.5332
rfoot 4.29242 4.20707
rtoes -5.03095
lfemur -17.2485 -2.53967 -22.9397
ltibia 28.1761
lfoot -4.86424 -3.0893
ltoes -0.113997
405
root 1.19999 17.7763 44.2106 -3.78286 -6.66638 -0.303218
lowerback 9.70413 1.59143 2.04944
upperback 0.416102 2.35192 0.1981
thorax -4.93405 1.11588 -1.26913
lowerneck -16.9033 -2.96779 -2.78573
upperneck 21.4602 -3.56834 0.766218
head 9.65186 -1.80032 0.25808
rclavicle 2.96096e-014 4.77083e-015
rhumerus -24.859 -19.5777 -80.6105
rradius 26.7639
rwrist 4.94828
rhand -16.0085 20.0561
rfingers 7.12502
rthumb 10.192 -9.67703
lclavicle 2.96096e-014 4.77083e-015
lhumerus -36.5401 3.71268 81.5497
lradius 18.3832
lwrist -3.5916
lhand -32.1681 16.4266
lfingers 7.12502
lthumb -5.41103 46.3376
rfemur -2.70472 4.30146 23.5231
rtibia 61.5804
rfoot 2.94915 2.53362
rtoes -5.13266
lfemur -16.7443 -2.81766 -23.1632
ltibia 28.0642
lfoot -5.80103 -2.71088
ltoes -0.352885
406
root 1.20802 17.7846 44.3999 -3.98315 -6.49596 0.0323095
lowerback 9.58904 1.51062 1.73873
upperback 0.526852 2.20506 0.175697
thorax -4.76947 1.05298 -1.09234
lowerneck -16.43 -2.69333 -2.79645
upperneck 20.9774 -3.19116 0.766758
head 9.38762 -1.62787 0.319211
rclavicle -1.11257e-014 -3.57812e-015
rhumerus -24.9556 -19.7245 -80.4379
rradius 26.339
rwrist 5.26155
rhand -15.9453 19.7806
rfingers 7.12502
rthumb 10.253 -9.94949
lclavicle -1.11257e-014 -3.57812e-015
lhumerus -36.1425 3.80917 81.4018
lradius 20.7538
lwrist 1.6564
lhand -24.8506 22.8856
lfingers 7.12502
lthumb 1.65586 52.8589
rfemur -3.80517 3.91473 22.9617
rtibia 63.339
rfoot 1.69138 1.01371
rtoes -4.07709
lfemur -15.8646 -3.06594 -23.7273
ltibia 28.1125
lfoot -6.33007 -2.59689
ltoes 1.47094
407
root 1.2101 17.7973 44.5894 -4.23823 -6.17298 0.229776
lowerback 9.45996 1.37361 1.50589
upperback 0.713057 1.99462 0.211425
thorax -4.51811 0.958045 -0.889437
lowerneck -16.9757 -2.91695 -3.01696
upperneck 21.5072 -3.38169 0.564723
head 9.67976 -1.75577 0.249923
rclavicle -1.57164e-015 3.97569e-015
rhumerus -24.9537 -19.8761 -80.2796
rradius 25.8955
rwrist 5.37811
rhand -15.9415 20.3722
rfingers 7.12502
rthumb 10.2566 -9.3577
lclavicle -1.57164e-015 3.97569e-015
lhumerus -35.8927 3.37275 81.6525
lradius 21.7606
lwrist 3.0095
lhand -24.1814 22.2397
lfingers 7.12502
lthumb 2.30214 52.207
rfemur -4.7483 3.34318 22.5897
rtibia 64.889
rfoot 0.516386 -0.244056
rtoes -2.99544
lfemur -14.8654 -3.18697 -24.1636
ltibia 28.2955
lfoot -6.83971 -2.52959
ltoes 1.97112
408
root 1.21245 17.8097 44.7433 -4.28318 -5.89054 0.283546
lowerback 9.76465 1.18609 1.30011
upperback 0.666731 1.73235 0.281892
thorax -4.75163 0.830609 -0.674835
lowerneck -17.136 -2.90086 -3.07544
upperneck 21.606 -3.32509 0.510053
head 9.74379 -1.74036 0.245218
rclavicle -2.57178e-015 -1.23246e-014
rhumerus -25.1242 -20.1497 -80.154
rradius 25.4567
rwrist 5.80897
rhand -15.9502 20.6718
rfingers 7.12502
rthumb 10.2482 -9.05853
lclavicle -2.57178e-015 -1.23246e-014
lhumerus -35.7489 2.93928 81.9373
lradius 21.8038
lwrist 3.38882
lhand -27.1243 19.2099
lfingers 7.12502
lthumb -0.540169 49.1889
rfemur -6.22244 2.82317 22.3983
rtibia 66.4005
rfoot -0.594553 -1.5378
rtoes -2.33918
lfemur -14.4222 -3.18986 -24.3554
ltibia 28.6855
lfoot -7.5109 -2.51193
ltoes 2.13651
